<?xml version="1.0" standalone="no"?>
<!DOCTYPE svg PUBLIC "-//W3C//DTD SVG 20010904//EN"
 "http://www.w3.org/TR/2001/REC-SVG-20010904/DTD/svg10.dtd">
<svg version="1.0" xmlns="http://www.w3.org/2000/svg"
 width="1024.000000pt" height="1024.000000pt" viewBox="0 0 1024.000000 1024.000000"
 preserveAspectRatio="xMidYMid meet">

<g transform="translate(0.000000,1024.000000) scale(0.100000,-0.100000)"
fill="#000000" stroke="none">
<path d="M2869 7772 c-210 -263 -294 -561 -229 -818 53 -209 179 -371 415
-528 107 -72 405 -215 650 -311 121 -48 242 -99 268 -113 60 -32 102 -84 127
-157 11 -31 79 -414 152 -850 l132 -793 -59 -119 c-37 -74 -58 -130 -58 -150
1 -20 17 -59 44 -100 142 -226 375 -582 393 -601 51 -57 53 -57 416 -57 372 0
371 0 421 67 38 50 394 598 413 635 26 52 20 86 -39 203 -60 120 -62 131 -40
260 8 47 64 382 125 745 116 693 127 751 159 814 40 77 72 96 376 216 603 238
889 435 1017 700 54 113 71 203 65 345 -8 181 -61 339 -165 493 -53 78 -132
177 -132 165 0 -2 9 -40 21 -84 26 -100 29 -266 5 -374 -32 -147 -119 -294
-246 -414 -138 -129 -314 -229 -600 -339 -208 -80 -264 -104 -354 -149 -238
-119 -368 -277 -431 -523 -37 -146 -299 -1806 -291 -1848 3 -19 34 -80 68
-136 55 -92 60 -106 51 -130 -6 -14 -54 -91 -108 -169 -75 -112 -105 -147
-131 -158 -43 -18 -335 -19 -377 -1 -32 14 -237 316 -237 349 0 11 27 63 60
115 33 52 62 110 65 127 7 35 -9 145 -130 912 -118 746 -123 775 -150 896 -40
179 -130 340 -242 434 -118 99 -212 147 -517 268 -363 144 -527 237 -662 373
-138 140 -220 311 -233 487 -7 110 2 235 24 311 9 31 15 58 13 60 -2 2 -24
-22 -49 -53z"/>
<path d="M2590 6609 c0 -3 9 -55 20 -115 56 -311 190 -540 415 -707 90 -67
213 -131 389 -202 129 -53 169 -76 198 -115 19 -26 25 -51 128 -538 33 -155
66 -297 74 -315 7 -17 29 -46 47 -64 39 -36 312 -233 317 -229 4 4 -19 142
-82 496 -25 140 -70 399 -101 575 -30 176 -62 339 -71 362 -26 72 -74 102
-286 183 -355 135 -557 237 -738 371 -86 63 -234 204 -283 269 -15 19 -27 32
-27 29z"/>
<path d="M7583 6534 c-207 -243 -527 -432 -1056 -624 -65 -23 -132 -52 -150
-64 -58 -39 -72 -81 -120 -366 -25 -146 -80 -465 -122 -709 -42 -244 -74 -445
-72 -447 4 -4 293 208 330 244 36 35 43 61 132 492 41 201 80 377 86 393 19
45 60 71 190 122 451 174 675 384 788 738 27 85 67 284 59 292 -2 2 -31 -30
-65 -71z"/>
</g>
</svg>
